<svg width="14" height="17" viewBox="0 0 14 17" fill="none" xmlns="http://www.w3.org/2000/svg">
<path fill-rule="evenodd" clip-rule="evenodd" d="M2.04953 2.05011C3.36235 0.737292 5.14292 -0.000244141 6.99953 -0.000244141C8.85614 -0.000244141 10.6367 0.737292 11.9495 2.05011C13.2623 3.36293 13.9999 5.1435 13.9999 7.00011C13.9999 8.85672 13.2623 10.6373 11.9495 11.9501L6.99953 16.9001L2.04953 11.9501C1.39944 11.3001 0.883763 10.5284 0.531935 9.67906C0.180107 8.82974 -0.000976562 7.91943 -0.000976562 7.00011C-0.000976562 6.0808 0.180107 5.17049 0.531935 4.32116C0.883763 3.47184 1.39944 2.70013 2.04953 2.05011ZM6.99953 9.00011C7.52996 9.00011 8.03867 8.7894 8.41374 8.41433C8.78881 8.03925 8.99953 7.53055 8.99953 7.00011C8.99953 6.46968 8.78881 5.96097 8.41374 5.5859C8.03867 5.21083 7.52996 5.00011 6.99953 5.00011C6.4691 5.00011 5.96039 5.21083 5.58532 5.5859C5.21024 5.96097 4.99953 6.46968 4.99953 7.00011C4.99953 7.53055 5.21024 8.03925 5.58532 8.41433C5.96039 8.7894 6.4691 9.00011 6.99953 9.00011Z" fill="black"/>
</svg>
