<svg width="40" height="40" viewBox="0 0 40 40" fill="none" xmlns="http://www.w3.org/2000/svg">
<path d="M20 0.158691C9.04758 0.158691 0.158691 9.04758 0.158691 20C0.158691 30.9523 9.04758 39.8412 20 39.8412C30.9523 39.8412 39.8412 30.9523 39.8412 20C39.8412 9.04758 30.9523 0.158691 20 0.158691ZM20.3809 11.5555C21.0793 11.0476 24.4762 8.73012 30.6031 8.63488V24.5714C25.0793 24.6349 21.6825 26.4444 20.3809 27.3333V11.5555ZM9.39679 8.63488C15.492 8.73012 18.9206 11.0476 19.619 11.5555V27.3333C18.3174 26.4762 14.9206 24.6666 9.39679 24.5714V8.63488ZM33.3015 28.7301H21.873C21.6508 28.7301 21.492 28.8889 21.492 29.1111C21.492 29.2381 20.9841 29.492 20.0317 29.492C19.0793 29.492 18.5714 29.2063 18.5714 29.1111C18.5714 28.8889 18.4127 28.7301 18.1904 28.7301H6.76187V11.7777H8.66663V24.9841C8.66663 25.2063 8.82536 25.365 9.04758 25.365C16.1587 25.365 19.746 28.3492 19.7777 28.3809L19.8095 28.4127C19.8095 28.4127 19.8095 28.4127 19.8412 28.4127C19.8412 28.4127 19.8412 28.4127 19.873 28.4127C19.9047 28.4127 19.9047 28.4127 19.9365 28.4444C19.9365 28.4444 19.9365 28.4444 19.9682 28.4444C20 28.4444 20.0317 28.4444 20.0317 28.4444C20.0635 28.4444 20.0952 28.4444 20.0952 28.4444C20.0952 28.4444 20.0952 28.4444 20.1269 28.4444C20.1587 28.4444 20.1587 28.4444 20.1904 28.4127C20.1904 28.4127 20.1904 28.4127 20.2222 28.4127C20.2222 28.4127 20.2222 28.4127 20.2539 28.4127L20.2857 28.3809C20.3174 28.3492 23.9047 25.365 31.0158 25.365C31.2381 25.365 31.3968 25.2063 31.3968 24.9841V11.7777H33.3015V28.7301Z" fill="#BB492A"/>
</svg>
