<svg width="24" height="24" viewBox="0 0 24 24" fill="none" xmlns="http://www.w3.org/2000/svg">
<path d="M10.4776 1.6832C10.9576 0.209603 13.0424 0.209603 13.5208 1.6832L15.2328 6.9504C15.3374 7.27118 15.5407 7.55069 15.8137 7.74897C16.0867 7.94725 16.4154 8.05415 16.7528 8.0544H22.292C23.8424 8.0544 24.4856 10.0384 23.2328 10.9504L18.7528 14.2048C18.4792 14.4033 18.2755 14.6832 18.1709 15.0046C18.0663 15.3259 18.0661 15.6721 18.1704 15.9936L19.8824 21.2608C20.3624 22.7344 18.6744 23.9616 17.4184 23.0496L12.9384 19.7952C12.6651 19.5968 12.3361 19.49 11.9984 19.49C11.6607 19.49 11.3316 19.5968 11.0584 19.7952L6.57838 23.0496C5.32398 23.9616 3.63758 22.7344 4.11598 21.2608L5.82798 15.9936C5.93226 15.6721 5.93207 15.3259 5.82744 15.0046C5.72282 14.6832 5.51913 14.4033 5.24558 14.2048L0.767177 10.952C-0.485623 10.04 0.159177 8.056 1.70798 8.056H7.24558C7.58325 8.05609 7.9123 7.94934 8.18562 7.75104C8.45893 7.55274 8.6625 7.27304 8.76718 6.952L10.4792 1.6848L10.4776 1.6832Z" fill="#B4B4B4"/>
</svg>
