<svg width="24" height="24" viewBox="0 0 24 24" fill="none" xmlns="http://www.w3.org/2000/svg">
<path d="M10.4786 1.6832C10.9586 0.209603 13.0434 0.209603 13.5218 1.6832L15.2338 6.9504C15.3383 7.27118 15.5417 7.55069 15.8147 7.74897C16.0877 7.94725 16.4164 8.05415 16.7538 8.0544H22.293C23.8434 8.0544 24.4866 10.0384 23.2338 10.9504L18.7538 14.2048C18.4802 14.4033 18.2765 14.6832 18.1719 15.0046C18.0673 15.3259 18.0671 15.6721 18.1714 15.9936L19.8834 21.2608C20.3634 22.7344 18.6754 23.9616 17.4194 23.0496L12.9394 19.7952C12.6661 19.5968 12.337 19.49 11.9994 19.49C11.6617 19.49 11.3326 19.5968 11.0594 19.7952L6.57935 23.0496C5.32495 23.9616 3.63855 22.7344 4.11695 21.2608L5.82895 15.9936C5.93323 15.6721 5.93305 15.3259 5.82842 15.0046C5.7238 14.6832 5.5201 14.4033 5.24655 14.2048L0.768154 10.952C-0.484646 10.04 0.160154 8.056 1.70895 8.056H7.24655C7.58423 8.05609 7.91328 7.94934 8.18659 7.75104C8.45991 7.55274 8.66348 7.27304 8.76815 6.952L10.4802 1.6848L10.4786 1.6832Z" fill="#FFB800"/>
</svg>
